# xmcd CD database file
#
# Track frame offsets:
#	300
#	17268
#	31457
#	46235
#	61621
#
# Disc length: 1024 seconds
#
# Revision: 0
# Processed by: cddbd v1.5.2PL0 Copyright (c) Steve Scherf et al.
# Submitted via: CDex 1.51
#
DISCID=2f03fc05
DTITLE=Blue Mistral Trio - Blue Mistral Trio
DYEAR=2016
DGENRE=Blues
TTITLE0=Friar's Point
TTITLE1=Strong Enough
TTITLE2=Attraction
TTITLE3=Crazy
TTITLE4=Evil Gal Blues
EXTD=YEAR: 2016
EXTT0=
EXTT1=
EXTT2=
EXTT3=
EXTT4=
PLAYORDER=
